<?xml version="1.0" standalone="no"?>
<!DOCTYPE svg PUBLIC "-//W3C//DTD SVG 20010904//EN"
 "http://www.w3.org/TR/2001/REC-SVG-20010904/DTD/svg10.dtd">
<svg version="1.0" xmlns="http://www.w3.org/2000/svg"
 width="48.000000pt" height="48.000000pt" viewBox="0 0 48.000000 48.000000"
 preserveAspectRatio="xMidYMid meet">

<g transform="translate(0.000000,48.000000) scale(0.100000,-0.100000)"
fill="#000000" stroke="none">
<path d="M160 467 c-49 -16 -133 -102 -148 -153 -28 -94 -8 -169 63 -239 101
-102 229 -102 330 0 102 101 102 229 0 330 -70 71 -152 91 -245 62z m240 -130
c0 -2 -38 -34 -85 -73 l-85 -69 56 -3 c52 -3 55 -4 48 -25 -3 -12 -8 -23 -9
-25 -1 -1 -57 -1 -125 0 l-122 3 87 70 87 70 -51 3 c-56 3 -56 4 -39 32 12 18
24 20 125 20 62 0 113 -1 113 -3z"/>
</g>
</svg>
